<svg xmlns="http://www.w3.org/2000/svg" width="1200" height="630" viewBox="0 0 1200 630" role="img" aria-label="ElectroMachines Lab - Free Interactive Electrical Engineering Simulator for Students">
  <title>ElectroMachines Lab - Free Interactive Electrical Machines Simulator for Engineering Students</title>
  <desc>Free online electrical machines simulator for DC motors, AC motors, transformers, PMSM, induction machines, synchronous generators, power electronics, wind turbines, solar panels - perfect for electrical engineering education</desc>
  <defs>
    <linearGradient id="bg" x1="0%" y1="0%" x2="100%" y2="100%">
      <stop offset="0%" style="stop-color:#0a1628"/>
      <stop offset="100%" style="stop-color:#1a3a5c"/>
    </linearGradient>
    <linearGradient id="glow" x1="0%" y1="0%" x2="100%" y2="0%">
      <stop offset="0%" style="stop-color:#00d4ff"/>
      <stop offset="100%" style="stop-color:#0099cc"/>
    </linearGradient>
  </defs>
  <rect width="1200" height="630" fill="url(#bg)"/>
  
  <!-- Circuit pattern -->
  <g stroke="#00d4ff" stroke-width="1" fill="none" opacity="0.2">
    <path d="M0,100 L200,100 L250,150 L400,150"/>
    <path d="M1200,200 L1000,200 L950,250 L800,250"/>
    <path d="M0,400 L150,400 L200,350 L350,350"/>
    <path d="M1200,500 L900,500 L850,450 L700,450"/>
  </g>
  
  <!-- Motor/Generator icon -->
  <g transform="translate(300, 315)">
    <circle cx="0" cy="0" r="80" fill="none" stroke="url(#glow)" stroke-width="4"/>
    <circle cx="0" cy="0" r="60" fill="none" stroke="#00d4ff" stroke-width="2" opacity="0.6"/>
    <circle cx="0" cy="0" r="40" fill="none" stroke="#00d4ff" stroke-width="1" opacity="0.4"/>
    <circle cx="0" cy="0" r="15" fill="#00d4ff"/>
    <!-- Rotor poles -->
    <g stroke="#00d4ff" stroke-width="3">
      <line x1="0" y1="-55" x2="0" y2="-25"/>
      <line x1="39" y1="-39" x2="18" y2="-18"/>
      <line x1="55" y1="0" x2="25" y2="0"/>
      <line x1="39" y1="39" x2="18" y2="18"/>
      <line x1="0" y1="55" x2="0" y2="25"/>
      <line x1="-39" y1="39" x2="-18" y2="18"/>
      <line x1="-55" y1="0" x2="-25" y2="0"/>
      <line x1="-39" y1="-39" x2="-18" y2="-18"/>
    </g>
  </g>
  
  <!-- Wind Turbine icon -->
  <g transform="translate(600, 315)">
    <line x1="0" y1="80" x2="0" y2="-40" stroke="#00d4ff" stroke-width="4"/>
    <g fill="#00d4ff">
      <polygon points="0,-35 8,-80 0,-60 -8,-80"/>
      <polygon points="0,-35 60,-20 40,-15 50,-50" transform="rotate(120)"/>
      <polygon points="0,-35 60,-20 40,-15 50,-50" transform="rotate(240)"/>
    </g>
  </g>
  
  <!-- Solar Panel icon -->
  <g transform="translate(900, 315)">
    <rect x="-50" y="-40" width="100" height="60" fill="none" stroke="#00d4ff" stroke-width="3" rx="3"/>
    <g fill="#00d4ff" opacity="0.6">
      <rect x="-45" y="-35" width="28" height="50" rx="1"/>
      <rect x="-12" y="-35" width="28" height="50" rx="1"/>
      <rect x="21" y="-35" width="24" height="50" rx="1"/>
    </g>
  </g>
  
  <!-- Title - Updated for SEO -->
  <text x="600" y="540" text-anchor="middle" font-family="Arial, sans-serif" font-size="36" font-weight="bold" fill="#ffffff">
    Electrical Machines Lab
  </text>
  <text x="600" y="575" text-anchor="middle" font-family="Arial, sans-serif" font-size="18" fill="#00d4ff">
    Free Engineering Simulator for Students - Motors, Transformers, Power Electronics
  </text>
</svg>